<?xml version="1.0" standalone="yes"?>

<svg version="1.1" viewBox="0.0 0.0 166.14435695538057 182.90813648293963" fill="none" stroke="none" stroke-linecap="square" stroke-miterlimit="10" xmlns="http://www.w3.org/2000/svg" xmlns:xlink="http://www.w3.org/1999/xlink"><clipPath id="p.0"><path d="m0 0l166.14436 0l0 182.90814l-166.14436 0l0 -182.90814z" clip-rule="nonzero"></path></clipPath><g clip-path="url(#p.0)"><path fill="#000000" fill-opacity="0.0" d="m0 0l166.14436 0l0 182.90814l-166.14436 0z" fill-rule="nonzero"></path><path fill="#eeeeee" d="m2.1745408 2.183727l26.965878 0l0 0l40.448822 0l94.38058 0l0 92.74541l0 0l0 39.74804l0 26.498688l-94.38058 0l-20.223873 19.874008l-20.224949 -19.874008l-26.965878 0l0 -26.498688l0 -39.74804l0 0z" fill-rule="nonzero"></path><path stroke="#38761d" stroke-width="3.0" stroke-linejoin="round" stroke-linecap="butt" d="m2.1745408 2.183727l26.965878 0l0 0l40.448822 0l94.38058 0l0 92.74541l0 0l0 39.74804l0 26.498688l-94.38058 0l-20.223873 19.874008l-20.224949 -19.874008l-26.965878 0l0 -26.498688l0 -39.74804l0 0z" fill-rule="nonzero"></path></g></svg>

