<?xml version="1.0" standalone="yes"?>

<svg version="1.1" viewBox="0.0 0.0 164.3727034120735 181.41469816272965" fill="none" stroke="none" stroke-linecap="square" stroke-miterlimit="10" xmlns="http://www.w3.org/2000/svg" xmlns:xlink="http://www.w3.org/1999/xlink"><clipPath id="p.0"><path d="m0 0l164.3727 0l0 181.4147l-164.3727 0l0 -181.4147z" clip-rule="nonzero"></path></clipPath><g clip-path="url(#p.0)"><path fill="#000000" fill-opacity="0.0" d="m0 0l164.3727 0l0 181.4147l-164.3727 0z" fill-rule="nonzero"></path><path fill="#eeeeee" d="m1.2887139 1.851706l26.96588 0l0 0l40.448822 0l94.38057 0l0 92.74541l0 0l0 39.748024l0 26.498688l-94.38057 0l-20.223873 19.874023l-20.224949 -19.874023l-26.96588 0l0 -26.498688l0 -39.748024l0 0z" fill-rule="nonzero"></path><path stroke="#a61c00" stroke-width="3.0" stroke-linejoin="round" stroke-linecap="butt" d="m1.2887139 1.851706l26.96588 0l0 0l40.448822 0l94.38057 0l0 92.74541l0 0l0 39.748024l0 26.498688l-94.38057 0l-20.223873 19.874023l-20.224949 -19.874023l-26.96588 0l0 -26.498688l0 -39.748024l0 0z" fill-rule="nonzero"></path></g></svg>

